<svg xmlns="http://www.w3.org/2000/svg" viewBox="0 0 160 160" role="img" aria-labelledby="title desc">
  <title id="title">Omar Nazzal clinic mark</title>
  <desc id="desc">A premium gold tooth mark with ON initials.</desc>
  <defs>
    <linearGradient id="gold" x1="24" y1="18" x2="132" y2="146" gradientUnits="userSpaceOnUse">
      <stop offset="0" stop-color="#fff0b5"/>
      <stop offset=".3" stop-color="#d8ad55"/>
      <stop offset=".68" stop-color="#9a6c23"/>
      <stop offset="1" stop-color="#f1d184"/>
    </linearGradient>
    <linearGradient id="field" x1="20" y1="8" x2="132" y2="152" gradientUnits="userSpaceOnUse">
      <stop offset="0" stop-color="#313329"/>
      <stop offset="1" stop-color="#10120f"/>
    </linearGradient>
  </defs>
  <circle cx="80" cy="80" r="74" fill="url(#field)" stroke="url(#gold)" stroke-width="3"/>
  <circle cx="80" cy="80" r="63" fill="none" stroke="#fff3cb" stroke-opacity=".12" stroke-width="1"/>
  <path
    d="M49 41c12-12 28-4 31 5 4-9 20-17 33-5 12 11 11 35 2 59-6 18-16 35-25 39-3-16-4-33-10-42-7 9-8 26-11 42-9-4-19-21-25-39-8-24-8-48 5-59Z"
    fill="none"
    stroke="url(#gold)"
    stroke-linecap="round"
    stroke-linejoin="round"
    stroke-width="8"
  />
  <path
    d="M63 43c16 7 32 7 49-1-6 11-19 18-34 18-9 0-15-2-20-6"
    fill="none"
    stroke="#ffe7a1"
    stroke-linecap="round"
    stroke-linejoin="round"
    stroke-width="5"
    opacity=".9"
  />
  <path
    d="M47 101c20 10 46 12 69 0"
    fill="none"
    stroke="#3f7d77"
    stroke-linecap="round"
    stroke-width="4"
    opacity=".82"
  />
  <text
    x="80"
    y="128"
    fill="#f1d184"
    font-family="Arial, sans-serif"
    font-size="28"
    font-weight="800"
    text-anchor="middle"
  >ON</text>
</svg>
